<svg id="Layer_1" viewBox="0 0 24 24" xmlns="http://www.w3.org/2000/svg" data-name="Layer 1"><path d="m22.701 8.984c-4.396-4.314-10.501-5.671-15.953-3.558l-3.03-3.122c-.385-.396-1.019-.406-1.414-.021-.396.385-.406 1.018-.021 1.414l16.999 17.513c.196.202.845.577 1.414.021.395-.386.406-1.018.021-1.414l-5.986-6.167c.906.396 1.771.989 2.567 1.772.195.191.761.564 1.415-.013.37-.327.381-1.027-.013-1.415-1.889-1.853-4.12-2.852-6.465-2.916l-3.954-4.074c4.546-1.432 9.353-.192 13.018 3.407.195.191.836.546 1.415-.013.397-.384.381-1.027-.013-1.415z"/><path d="m3.115 7.433c-.631.466-1.243.988-1.816 1.552-.394.387-.419 1.04-.013 1.414.609.561 1.219.204 1.414.013.507-.498 1.046-.959 1.603-1.37.444-.328.538-.954.21-1.398-.327-.444-.954-.54-1.398-.21z"/><path d="m7.706 12.192c-.853.466-1.663 1.072-2.407 1.803-.394.387-.404 1.024-.013 1.415.562.562 1.22.204 1.415.013.612-.602 1.273-1.098 1.964-1.476.485-.265.663-.873.398-1.357s-.873-.665-1.357-.398z"/><ellipse cx="12" cy="19.537" rx="2.5" ry="2.463"/></svg>