<?xml version="1.0" encoding="UTF-8"?>
<svg xmlns="http://www.w3.org/2000/svg" id="Layer_1" data-name="Layer 1" viewBox="0 0 24 24">
  <path d="M8.734,20.497c.392,1.441,1.708,2.503,3.266,2.503s2.872-1.061,3.265-2.501c-.889,.124-1.945,.193-3.266,.193s-2.375-.07-3.265-.195Z"/>
  <path d="M19.669,12.437c-.193-.41-.412-.834-.653-1.272-.213-.387-.324-.854-.321-1.35h0c.006-1.07-.063-2.155-.205-3.225-.409-3.082-3.3-5.59-6.537-5.59-3.144,0-6.035,2.508-6.444,5.59-.142,1.069-.211,2.154-.205,3.224,.003,.496-.108,.963-.322,1.351-.239,.435-.458,.859-.65,1.266-.473,1.003-.511,2.125-.106,3.156,.403,1.031,1.19,1.827,2.216,2.242,1.278,.517,2.712,.86,5.557,.86,2.878,0,4.265-.329,5.57-.86,1.022-.416,1.806-1.213,2.207-2.241,.402-1.031,.364-2.151-.108-3.153Z"/>
</svg>
